<svg width="251" height="83" fill="none" xmlns="http://www.w3.org/2000/svg"><path d="M147 28.512c0 29.989-23.953 54.3-53.5 54.3S40 58.5 40 28.511c0-29.988 26.953 2.537 56.5 2.537S147-1.476 147 28.512z" fill="#fff"/><path d="M20.086 27.939H8.385v24.37H0v-31.59h20.086v7.22zm12.64 24.325h-8.43V20.672h7.094c4.73-.03 7.11-.03 7.141 0 3.655 0 6.511 1.188 8.569 3.565 2.058 2.347 3.056 5.115 2.995 8.304 0 3.129-1.03 5.837-3.087 8.123-2.027 2.287-4.853 3.43-8.477 3.43h-5.805v8.169zm-.138-15.345h5.943c1.044 0 1.889-.45 2.534-1.353.645-.933.967-2.016.967-3.25 0-1.203-.307-2.241-.921-3.114-.614-.902-1.474-1.354-2.58-1.354h-5.943v9.072zM138.674 52.63V21.037h8.431v24.145h7.785V21.038h8.431v24.145h7.786V21.038h8.431V52.63h-40.864zm67.22-16.293L188.941 52.72h-2.488V21.04h8.431v15.434l16.815-15.57h2.626V52.63h-8.431V36.337zm34.824 16.293l-7.049-12.186c-.645.09-1.981.136-4.008.136v12.05h-8.431V21.037h8.431v12.366c2.488 0 4.054-.166 4.699-.497.676-.33 1.198-.932 1.566-1.805.369-.902.814-2.437 1.336-4.603.553-2.166 1.751-3.79 3.594-4.874 1.873-1.083 4.561-1.263 8.062-.541v5.55c-2.181-.15-3.486.602-3.916 2.257-1.106 3.941-2.426 6.74-3.962 8.394.799 1.204 2.242 3.43 4.331 6.68a675.669 675.669 0 004.883 7.446v1.218h-9.536z" fill="#1E2B73"/><path d="M130.785 37.847c0 20.155-16.552 36.494-36.97 36.494S56.845 58 56.845 37.847c0-20.155 16.552-36.493 36.97-36.493s36.97 16.338 36.97 36.493z" fill="#F9B31B"/><path d="M126.884 36.772c0 20.309-16.297 36.772-36.4 36.772-20.104 0-36.401-16.463-36.401-36.772C54.083 16.463 70.38 0 90.483 0c20.104 0 36.401 16.463 36.401 36.772z" fill="#FFEE24"/><path d="M117.782 35.983c0 14.638-12.095 26.505-27.016 26.505-14.92 0-27.016-11.867-27.016-26.505 0-14.638 12.096-26.504 27.016-26.504 14.921 0 27.016 11.866 27.016 26.504z" fill="#F5B123"/><path d="M116.888 36.462c0 14.155-11.586 25.63-25.879 25.63-14.292 0-25.878-11.475-25.878-25.63S76.717 10.833 91.01 10.833c14.292 0 25.878 11.475 25.878 25.63z" fill="#FDCE0F"/><path d="M83.083 46.04s5.715 1.591 9.953 1.393c2.918-.137 7.679-1.393 7.679-1.393s-.238 1.602-.854 2.507c-1.516 2.229-4.55 3.997-7.678 4.179-4.249.246-8.247-1.393-8.247-1.393l-.853-5.293z" fill="#F1373C"/><path d="M93.24 47.433c2.712-1.063 7.678-1.393 7.678-1.393s-.237 1.602-.853 2.507c-1.517 2.229-3.987 3.924-7.11 4.179-3.412.278-7.11-.836-7.11-.836.285-1.671 4.55-3.343 7.395-4.457z" fill="#FF484D"/><path d="M82.28 32.057c0 2-1.674 3.621-3.74 3.621-2.067 0-3.742-1.62-3.742-3.621 0-2 1.675-3.622 3.741-3.622 2.067 0 3.742 1.622 3.742 3.622z" fill="#1E3040"/><path d="M80.302 30.45a.67.67 0 01-.68.658.67.67 0 01-.68-.659.67.67 0 01.68-.658.67.67 0 01.68.659z" fill="#E8E8E8"/><path d="M105.758 32.057c0 2-1.676 3.621-3.742 3.621s-3.742-1.62-3.742-3.621c0-2 1.676-3.622 3.742-3.622s3.742 1.622 3.742 3.622z" fill="#1E3040"/><path d="M103.777 30.45a.67.67 0 01-.681.658.67.67 0 01-.68-.659.67.67 0 01.68-.658.67.67 0 01.681.659z" fill="#E8E8E8"/><path d="M107.984 25.82c0 .863-1.933-.85-5.403-.85-3.47 0-5.687 1.713-5.687.85 0-.861 2.217-2.8 5.687-2.8s5.403 1.939 5.403 2.8zm-23.477 0c0 .863-1.934-.85-5.403-.85-3.47 0-5.688 1.713-5.688.85 0-.861 2.218-2.8 5.688-2.8 3.47 0 5.403 1.939 5.403 2.8z" fill="#1E3040"/><path d="M83.083 43.332s6.568 1.313 10.806 1.114c2.919-.136 6.826-1.114 6.826-1.114l.568 2.786s-4.458 1.222-7.394 1.393c-4.249.246-10.806-1.393-10.806-1.393v-2.786z" fill="#fff"/></svg>