<svg width="571" height="120" viewBox="0 0 571 120" xmlns="http://www.w3.org/2000/svg"><defs><linearGradient x1="-228.909%" y1="99.194%" x2="540.372%" y2="-36.53%" id="linearGradient-1"><stop stop-color="#599DE1" offset="0%"/><stop stop-color="#75CEFC" offset="100%"/></linearGradient><linearGradient x1="-478.907%" y1="130.633%" x2="651.542%" y2="-41.755%" id="linearGradient-2"><stop stop-color="#599DE1" offset="0%"/><stop stop-color="#75CEFC" offset="100%"/></linearGradient><linearGradient x1="-560.745%" y1="148.769%" x2="527.536%" y2="-27.197%" id="linearGradient-3"><stop stop-color="#599DE1" offset="0%"/><stop stop-color="#75CEFC" offset="100%"/></linearGradient><linearGradient x1="-711.377%" y1="164.347%" x2="444.007%" y2="-9.217%" id="linearGradient-4"><stop stop-color="#599DE1" offset="0%"/><stop stop-color="#75CEFC" offset="100%"/></linearGradient><linearGradient x1="-812.821%" y1="176.951%" x2="318.383%" y2="10.532%" id="linearGradient-5"><stop stop-color="#599DE1" offset="0%"/><stop stop-color="#75CEFC" offset="100%"/></linearGradient><linearGradient x1="-867.435%" y1="201.463%" x2="214.26%" y2="25.516%" id="linearGradient-6"><stop stop-color="#599DE1" offset="0%"/><stop stop-color="#75CEFC" offset="100%"/></linearGradient><linearGradient x1="0%" y1="50.016%" x2="100.009%" y2="50.016%" id="linearGradient-7"><stop stop-color="#75CEFC" offset="0%"/><stop stop-color="#75CEFC" offset="100%"/></linearGradient></defs><g id="Startpage" stroke="none" stroke-width="1" fill="none" fill-rule="evenodd"><g id="Logo" transform="translate(-113 -240)"><g id="Group-2"><g id="UI-/-Logo-/-Blue" transform="translate(113 240)"><g id="UP_logo_colour" fill-rule="nonzero"><path d="M41.445 45.856h-2.649l-5.153 10-12.861-25.362a5.88 5.88 0 00-1.25-1.544 4.196 4.196 0 00-3.092-1.031H2.261a2.173 2.173 0 00-1.593.668A2.176 2.176 0 000 30.181c.018.476.16.94.412 1.344L23.767 74.45c-1.786 3.296-3.433 5.63-4.94 7-1.512 1.375-3.049 2.063-4.629 2.063H6.702a2.673 2.673 0 00-1.955.818 2.682 2.682 0 00-.824 1.956V97.2a2.67 2.67 0 00.824 1.956A2.66 2.66 0 006.69 100h7.495a24.31 24.31 0 008.927-1.563 24.264 24.264 0 007.145-4.325A36.243 36.243 0 0036.11 87.5a80.765 80.765 0 005.147-8.444l17.971-33.2H41.445zM85.5 64.05L99.798 48.2a8.158 8.158 0 011.543-1.131 4.695 4.695 0 012.467-.625h14.717a2.454 2.454 0 012.467 2.5c.01.3-.044.597-.156.875a4.84 4.84 0 01-.974 1.187l-18.74 21.719 20.888 22.856c.303.338.58.7.825 1.081.14.258.215.545.218.838a2.463 2.463 0 01-2.498 2.469h-15.41a5.937 5.937 0 01-2.498-.463 5.191 5.191 0 01-1.7-1.287L85.52 81.344v15.85a2.818 2.818 0 01-2.78 2.781H69.753a2.818 2.818 0 01-2.773-2.781V49.23a2.818 2.818 0 012.773-2.781h12.968a2.818 2.818 0 012.78 2.781v14.82z" id="Path" fill="#F3D637"/><path d="M161.73 101.013a20.015 20.015 0 01-5.246-.626c-1.36-.352-2.67-.87-3.904-1.543a13.905 13.905 0 01-2.78-2.006 19.127 19.127 0 01-1.874-2.013v21.931a2.793 2.793 0 01-2.773 2.775h-12.949a2.793 2.793 0 01-2.773-2.775v-67.5a2.805 2.805 0 012.773-2.781h12.45a2.818 2.818 0 012.76 2.756v2.363c.625-.681 1.287-1.407 2.005-2.157a10.982 10.982 0 012.674-2.012 16.185 16.185 0 013.91-1.438 24.584 24.584 0 015.71-.568c2.97-.02 5.926.45 8.744 1.394 2.69.89 5.15 2.364 7.202 4.318a21.926 21.926 0 014.997 7.363 28.996 28.996 0 012.112 10.5c.07 1.033.104 2.423.1 4.168 0 1.75-.032 3.125-.1 4.17a28.996 28.996 0 01-2.112 10.5 21.926 21.926 0 01-4.997 7.362 19.799 19.799 0 01-7.202 4.375 26.22 26.22 0 01-8.726 1.444zm4.636-24.913a26.984 26.984 0 000-5.769 11.767 11.767 0 00-2.368-6.25c-1.374-1.783-3.664-2.675-6.87-2.675a9.702 9.702 0 00-3.91.725 7.889 7.889 0 00-2.724 1.875 9.507 9.507 0 00-1.7 2.625c-.41.954-.687 1.959-.824 2.988a31.593 31.593 0 000 7.206c.137 1.029.415 2.034.825 2.987.416.964.99 1.851 1.699 2.626a7.889 7.889 0 002.723 1.874c1.24.51 2.57.756 3.91.725 3.223 0 5.514-.893 6.871-2.68a11.729 11.729 0 002.368-6.257z" id="Shape" fill="#F3D637"/><path d="M258.031 28.75a2.67 2.67 0 01.825 1.956v66.5A2.818 2.818 0 01256.1 100h-13.505a2.818 2.818 0 01-2.773-2.781V44.375h-24.898v52.806a2.818 2.818 0 01-2.78 2.782h-13.48a2.805 2.805 0 01-2.773-2.782V30.7a2.805 2.805 0 012.774-2.781H256.1c.73 0 1.428.301 1.93.831z" id="Path" fill="url(#linearGradient-1)"/><path d="M325.217 69.3c.07 1.033.104 2.356.1 3.969a70.897 70.897 0 01-.1 3.962c-.124 3.21-.9 6.362-2.28 9.263a24.037 24.037 0 01-5.622 7.569 26.319 26.319 0 01-8.695 5.093 35.74 35.74 0 01-22.736 0 26.194 26.194 0 01-8.695-5.094 23.943 23.943 0 01-5.66-7.568 23.455 23.455 0 01-2.26-9.263c-.071-1.029-.107-2.35-.107-3.962 0-1.613.036-2.936.106-3.969a22.436 22.436 0 012.155-9.262 23.655 23.655 0 015.697-7.538 27.537 27.537 0 018.745-5.144 34.854 34.854 0 0122.737 0 27.674 27.674 0 018.745 5.144 23.043 23.043 0 015.659 7.569 24.18 24.18 0 012.211 9.231zm-37.478 7.413a8.683 8.683 0 002.83 6.125c1.665 1.483 3.878 2.222 6.64 2.218 2.76-.004 4.971-.743 6.633-2.218a8.683 8.683 0 002.83-6.125 29.817 29.817 0 000-7 8.708 8.708 0 00-2.83-6.125c-1.666-1.476-3.877-2.213-6.634-2.213-2.756 0-4.97.737-6.64 2.212a8.708 8.708 0 00-2.83 6.126 30.743 30.743 0 000 7z" id="Shape" fill="url(#linearGradient-2)"/><path d="M332.42 60.962a10.304 10.304 0 011.904-5.2 19.25 19.25 0 015.091-5.043 29.263 29.263 0 017.92-3.806 34.167 34.167 0 0110.494-1.494c3.57-.049 7.127.455 10.544 1.494a26.61 26.61 0 018.027 4.012 18.434 18.434 0 015.147 5.819 14.019 14.019 0 011.799 6.794 12.231 12.231 0 01-.925 5.043 16.532 16.532 0 01-2.88 4.219 18.542 18.542 0 013.599 4.588 11.518 11.518 0 011.249 5.506 13.694 13.694 0 01-1.874 6.793 18.177 18.177 0 01-5.347 5.813 28.433 28.433 0 01-8.389 4.019 37.458 37.458 0 01-10.956 1.493 35.847 35.847 0 01-10.619-1.487 33.346 33.346 0 01-8.282-3.75 20.086 20.086 0 01-5.453-4.913 9.41 9.41 0 01-2.062-5.118 2.263 2.263 0 01.775-1.944 2.854 2.854 0 012.005-.819h12.449a4.633 4.633 0 012.367.5c.544.332 1.143.681 1.8 1.044a13.59 13.59 0 002.498 1.05c1.475.385 2.999.55 4.522.494a22.4 22.4 0 005.765-.625c1.506-.407 2.262-1.25 2.262-2.569 0-1.17-.754-2.004-2.262-2.5a18.254 18.254 0 00-5.765-.769h-3.186a2.818 2.818 0 01-2.78-2.781v-7.313a2.818 2.818 0 012.78-2.775h3.186c1.718.06 3.431-.22 5.04-.825 1.308-.55 1.96-1.34 1.956-2.368-.004-1.03-.656-1.819-1.955-2.369a13.192 13.192 0 00-5.04-.819 11.793 11.793 0 00-4.011.513 8.02 8.02 0 00-2.143 1.175c-.524.43-1.074.827-1.649 1.187a4.483 4.483 0 01-2.367.513h-12.455a2.847 2.847 0 01-2.012-.825 2.288 2.288 0 01-.768-1.956z" id="Path" fill="url(#linearGradient-3)"/><path d="M433.142 100a2.818 2.818 0 01-2.78-2.781V74.556L410.917 98.85a2.916 2.916 0 01-2.367 1.131h-11.906a2.498 2.498 0 01-1.905-.825 2.776 2.776 0 01-.774-1.956V49.231a2.818 2.818 0 012.78-2.781h12.96a2.818 2.818 0 012.78 2.781v22.75l19.445-24.375a2.823 2.823 0 012.267-1.131h11.931a2.818 2.818 0 012.78 2.781v47.969a2.818 2.818 0 01-2.78 2.781L433.142 100z" id="Path" fill="url(#linearGradient-4)"/><path d="M479.334 64.05l14.304-15.85a8.158 8.158 0 011.543-1.131 4.683 4.683 0 012.498-.625h14.71a2.46 2.46 0 012.499 2.5c.006.299-.047.596-.156.875a5 5 0 01-.975 1.187l-18.739 21.719L515.9 95.581c.305.336.58.698.824 1.081.145.269.216.57.207.875a2.463 2.463 0 01-2.499 2.47h-15.447a5.937 5.937 0 01-2.499-.463 5.191 5.191 0 01-1.699-1.288l-15.435-16.875v15.85a2.805 2.805 0 01-2.773 2.782h-12.986a2.818 2.818 0 01-2.78-2.782v-48a2.818 2.818 0 012.78-2.781h12.967a2.805 2.805 0 012.774 2.781V64.05z" id="Path" fill="url(#linearGradient-5)"/><path d="M518.224 84.744a14.09 14.09 0 015.197-11.25c3.46-2.95 9.1-5.113 16.92-6.488L552.386 65a6.14 6.14 0 00-1.337-4.069c-.895-1.062-2.44-1.593-4.635-1.593a8.079 8.079 0 00-3.647.662c-.664.329-1.292.724-1.874 1.181a4.31 4.31 0 01-1.75 1.032 8.116 8.116 0 01-1.955.206H524.07a2.41 2.41 0 01-1.699-.625 1.876 1.876 0 01-.562-1.65 10.053 10.053 0 012.055-4.938 19.637 19.637 0 015.097-4.737 30.974 30.974 0 017.733-3.594 31.465 31.465 0 019.72-1.444c3.694-.07 7.376.452 10.906 1.544a21.484 21.484 0 017.664 4.275 16.644 16.644 0 014.478 6.481 22.95 22.95 0 011.437 8.288v31.194a2.805 2.805 0 01-2.773 2.78h-12.968a2.805 2.805 0 01-2.773-2.78V94.33a17.904 17.904 0 01-6.122 4.888c-2.436 1.2-5.642 1.802-9.619 1.806a23.23 23.23 0 01-7.877-1.25 16.407 16.407 0 01-5.759-3.4 14.575 14.575 0 01-3.548-5.144 16.765 16.765 0 01-1.236-6.487zm23.46 2.368a11.32 11.32 0 004.217-.774 10.712 10.712 0 003.398-2.107 9.856 9.856 0 002.261-3.125 9.136 9.136 0 00.825-3.856l-9.47 1.438a10.99 10.99 0 00-4.472 1.75 3.794 3.794 0 00-1.699 3.193c0 1.309.429 2.217 1.287 2.725a7.092 7.092 0 003.654.757z" id="Shape" fill="url(#linearGradient-6)"/><path d="M110.086 40.094h-63.5a2.223 2.223 0 01-1.943-3.306L53.3 21.163a2.223 2.223 0 011.943-1.144h63.507a2.223 2.223 0 011.942 3.306l-8.657 15.625a2.23 2.23 0 01-1.949 1.144z" id="Path" fill="#F3D637"/><path d="M125.115 20.044H61.608a2.217 2.217 0 01-1.943-3.3l8.658-15.625A2.23 2.23 0 0170.272 0h63.5a2.223 2.223 0 011.943 3.306l-8.658 15.625a2.223 2.223 0 01-1.942 1.113z" id="Path" fill="url(#linearGradient-7)"/></g></g></g></g></g></svg>